<?xml version="1.0" encoding="UTF-8"?>
<svg width="256" height="64" version="1.1" viewBox="0 0 67.733 16.933" xmlns="http://www.w3.org/2000/svg" xmlns:cc="http://creativecommons.org/ns#" xmlns:dc="http://purl.org/dc/elements/1.1/" xmlns:rdf="http://www.w3.org/1999/02/22-rdf-syntax-ns#">
 <metadata>
  <rdf:RDF>
   <cc:Work rdf:about="">
    <dc:format>image/svg+xml</dc:format>
    <dc:type rdf:resource="http://purl.org/dc/dcmitype/StillImage"/>
    <dc:title/>
   </cc:Work>
  </rdf:RDF>
 </metadata>
 <g fill="#049ef4" aria-label="three.js">
  <g transform="translate(-.26458 -25.665)" fill="#049ef4" stroke-width=".26458">
   <path d="m7.3132 28.453v1.972h2.5921v0.88677h-2.5921v3.7703q0 0.76894 0.29146 1.0728 0.29146 0.30386 1.017 0.30386h1.2836v0.91157h-1.3953q-1.2836 0-1.8107-0.5147-0.5271-0.5147-0.5271-1.7735v-3.7703h-1.8542v-0.88677h1.8542v-1.972z"/>
   <path d="m17.669 33.067v4.3036h-1.1472v-4.3036q0-0.93638-0.32866-1.3767-0.32866-0.44028-1.0294-0.44028-0.79995 0-1.234 0.57051-0.42788 0.56431-0.42788 1.6247v3.9253h-1.141v-9.649h1.141v3.7455q0.30386-0.59531 0.82476-0.89917 0.5209-0.31006 1.234-0.31006 1.0604 0 1.5813 0.70073 0.5271 0.69453 0.5271 2.1084z"/>
   <path d="m25.96 31.857q-0.36587-0.28525-0.74414-0.41548-0.37827-0.13022-0.83096-0.13022-1.0666 0-1.6309 0.66973-0.56431 0.66973-0.56431 1.9348v3.4541h-1.1472v-6.9453h1.1472v1.3581q0.28525-0.73794 0.87436-1.1286 0.59531-0.39688 1.4077-0.39688 0.42168 0 0.78755 0.10542t0.70073 0.32866z"/>
   <path d="m33.34 33.612v0.5581h-4.9423v0.03721q0 1.1348 0.58911 1.7549 0.59531 0.62012 1.6743 0.62012 0.5457 0 1.141-0.17363 0.59531-0.17363 1.2712-0.5271v1.1348q-0.65112 0.26665-1.2588 0.39688-0.60151 0.13643-1.1658 0.13643-1.6185 0-2.5301-0.96738-0.91157-0.97358-0.91157-2.6789 0-1.6619 0.89297-2.6541 0.89297-0.99219 2.3812-0.99219 1.3271 0 2.0898 0.89917 0.76895 0.89917 0.76895 2.4557zm-1.141-0.33486q-0.02481-1.0046-0.47749-1.5255-0.44648-0.5271-1.2898-0.5271-0.82476 0-1.3581 0.5457-0.5333 0.5457-0.63252 1.5131z"/>
   <path d="m40.986 33.612v0.5581h-4.9423v0.03721q0 1.1348 0.58911 1.7549 0.59531 0.62012 1.6743 0.62012 0.5457 0 1.141-0.17363 0.59531-0.17363 1.2712-0.5271v1.1348q-0.65112 0.26665-1.2588 0.39688-0.60151 0.13643-1.1658 0.13643-1.6185 0-2.5301-0.96738-0.91157-0.97358-0.91157-2.6789 0-1.6619 0.89297-2.6541 0.89297-0.99219 2.3812-0.99219 1.3271 0 2.0898 0.89917 0.76894 0.89917 0.76894 2.4557zm-1.141-0.33486q-0.02481-1.0046-0.47749-1.5255-0.44648-0.5271-1.2898-0.5271-0.82476 0-1.3581 0.5457t-0.63252 1.5131z"/>
   <path d="m44.768 35.479h1.5627v1.8914h-1.5627z"/>
   <path d="m53.103 37.494v-6.1826h-1.9658v-0.88677h3.1068v7.0693q0 1.2092-0.55811 1.8604-0.5519 0.65732-1.5751 0.65732h-1.5751v-0.96738h1.4511q0.5581 0 0.83716-0.39067 0.27905-0.38447 0.27905-1.1596zm0-9.773h1.141v1.4449h-1.141z"/>
   <path d="m63.062 30.667v1.1162q-0.48989-0.28525-0.98599-0.42788-0.49609-0.14263-1.0108-0.14263-0.77515 0-1.1596 0.25425-0.37827 0.24805-0.37827 0.76274 0 0.46509 0.28525 0.69453 0.28525 0.22944 1.4201 0.44648l0.45889 0.08682q0.84956 0.16123 1.2836 0.64492 0.44028 0.48369 0.44028 1.2588 0 1.0294-0.73174 1.6123-0.73174 0.57671-2.034 0.57671-0.5147 0-1.079-0.11162-0.56431-0.10542-1.2216-0.32246v-1.1782q0.63872 0.32866 1.2216 0.49609 0.58291 0.16123 1.1038 0.16123 0.75654 0 1.172-0.30386 0.41548-0.31006 0.41548-0.86196 0-0.79375-1.5193-1.0976l-0.04961-0.0124-0.42788-0.08682q-0.98599-0.19224-1.4387-0.64492-0.45268-0.45889-0.45268-1.2464 0-0.99839 0.67593-1.5379 0.67593-0.5457 1.9286-0.5457 0.5581 0 1.0728 0.10542 0.5147 0.09922 1.0108 0.30386z"/>
   <path d="m7.8424 28.982v1.972h2.5921v0.88677h-2.5921v3.7703q0 0.76894 0.29146 1.0728 0.29146 0.30386 1.017 0.30386h1.2836v0.91157h-1.3953q-1.2836 0-1.8107-0.5147-0.5271-0.5147-0.5271-1.7735v-3.7703h-1.8542v-0.88677h1.8542v-1.972z"/>
   <path d="m18.198 33.596v4.3036h-1.1472v-4.3036q0-0.93638-0.32866-1.3767-0.32866-0.44028-1.0294-0.44028-0.79995 0-1.234 0.57051-0.42788 0.56431-0.42788 1.6247v3.9253h-1.141v-9.649h1.141v3.7455q0.30386-0.59531 0.82476-0.89917 0.5209-0.31006 1.234-0.31006 1.0604 0 1.5813 0.70073 0.5271 0.69453 0.5271 2.1084z"/>
   <path d="m26.489 32.387q-0.36587-0.28525-0.74414-0.41548-0.37827-0.13022-0.83096-0.13022-1.0666 0-1.6309 0.66973-0.56431 0.66973-0.56431 1.9348v3.4541h-1.1472v-6.9453h1.1472v1.3581q0.28525-0.73794 0.87436-1.1286 0.59531-0.39688 1.4077-0.39688 0.42168 0 0.78755 0.10542t0.70073 0.32866z"/>
   <path d="m33.869 34.142v0.5581h-4.9423v0.03721q0 1.1348 0.58911 1.7549 0.59531 0.62012 1.6743 0.62012 0.5457 0 1.141-0.17363 0.59531-0.17363 1.2712-0.5271v1.1348q-0.65112 0.26665-1.2588 0.39688-0.60151 0.13643-1.1658 0.13643-1.6185 0-2.5301-0.96738-0.91157-0.97358-0.91157-2.6789 0-1.6619 0.89297-2.6541 0.89297-0.99219 2.3812-0.99219 1.3271 0 2.0898 0.89917 0.76895 0.89917 0.76895 2.4557zm-1.141-0.33486q-0.02481-1.0046-0.47749-1.5255-0.44648-0.5271-1.2898-0.5271-0.82476 0-1.3581 0.5457-0.5333 0.5457-0.63252 1.5131z"/>
   <path d="m41.515 34.142v0.5581h-4.9423v0.03721q0 1.1348 0.58911 1.7549 0.59531 0.62012 1.6743 0.62012 0.5457 0 1.141-0.17363 0.59531-0.17363 1.2712-0.5271v1.1348q-0.65112 0.26665-1.2588 0.39688-0.60151 0.13643-1.1658 0.13643-1.6185 0-2.5301-0.96738-0.91157-0.97358-0.91157-2.6789 0-1.6619 0.89297-2.6541 0.89297-0.99219 2.3812-0.99219 1.3271 0 2.0898 0.89917 0.76894 0.89917 0.76894 2.4557zm-1.141-0.33486q-0.02481-1.0046-0.47749-1.5255-0.44648-0.5271-1.2898-0.5271-0.82476 0-1.3581 0.5457t-0.63252 1.5131z"/>
   <path d="m45.297 36.008h1.5627v1.8914h-1.5627z"/>
   <path d="m53.632 38.024v-6.1826h-1.9658v-0.88677h3.1068v7.0693q0 1.2092-0.55811 1.8604-0.5519 0.65732-1.5751 0.65732h-1.5751v-0.96738h1.4511q0.5581 0 0.83716-0.39067 0.27905-0.38447 0.27905-1.1596zm0-9.773h1.141v1.4449h-1.141z"/>
   <path d="m63.591 31.196v1.1162q-0.48989-0.28525-0.98599-0.42788-0.49609-0.14263-1.0108-0.14263-0.77515 0-1.1596 0.25425-0.37827 0.24805-0.37827 0.76274 0 0.46509 0.28525 0.69453 0.28525 0.22944 1.4201 0.44648l0.45889 0.08682q0.84956 0.16123 1.2836 0.64492 0.44028 0.48369 0.44028 1.2588 0 1.0294-0.73174 1.6123-0.73174 0.57671-2.034 0.57671-0.5147 0-1.079-0.11162-0.56431-0.10542-1.2216-0.32246v-1.1782q0.63872 0.32866 1.2216 0.49609 0.58291 0.16123 1.1038 0.16123 0.75654 0 1.172-0.30386 0.41548-0.31006 0.41548-0.86196 0-0.79375-1.5193-1.0976l-0.04961-0.0124-0.42788-0.08682q-0.98599-0.19224-1.4387-0.64492-0.45268-0.45889-0.45268-1.2464 0-0.99839 0.67593-1.5379 0.67593-0.5457 1.9286-0.5457 0.5581 0 1.0728 0.10542 0.5147 0.09922 1.0108 0.30386z"/>
  </g>
 </g>
</svg>
